<svg xmlns="http://www.w3.org/2000/svg" width="33.096" height="33.096" viewBox="0 0 33.096 33.096">
  <defs>
    <style>
      .cls-1 {
        fill: #fff;
      }

      .cls-2, .cls-3 {
        stroke: none;
      }

      .cls-3 {
        fill: #fff;
      }
    </style>
  </defs>
  <g id="exam-icon" class="cls-1" transform="translate(-2.757 -2.757)">
    <path class="cls-2" d="M 26.94189453125 35.80338668823242 L 6.381745338439941 35.80338668823242 C 4.41070556640625 35.80338668823242 2.807145357131958 34.19983673095703 2.807145357131958 32.22879409790039 C 2.807145357131958 30.25775527954102 4.41070556640625 28.65419578552246 6.381745338439941 28.65419578552246 L 8.681475639343262 28.65419578552246 L 8.681475639343262 23.91073608398438 L 8.681475639343262 23.8607349395752 L 8.731475830078125 23.8607349395752 L 9.906335830688477 23.8607349395752 L 9.956335067749023 23.8607349395752 L 9.956335067749023 23.91073608398438 L 9.956335067749023 28.65419578552246 L 26.41320610046387 28.65419578552246 C 26.76468467712402 28.65419578552246 27.05063629150391 28.94014549255371 27.05063629150391 29.2916259765625 C 27.05063629150391 29.64310455322266 26.76468467712402 29.92905616760254 26.41320610046387 29.92905616760254 C 25.98587608337402 29.9720458984375 25.81862449645996 30.12763595581055 25.37162590026855 30.54347610473633 L 25.3076057434082 30.60299491882324 C 24.87699508666992 31.03719520568848 24.64014625549316 31.61503601074219 24.64216613769531 32.22863388061523 C 24.64216613769531 33.20307922363281 25.10367012023926 34.38949966430664 26.40408897399902 34.52851486206055 L 26.94189453125 34.52851486206055 C 27.88606452941895 34.52851486206055 28.65419578552246 33.76038360595703 28.65419578552246 32.81622695922852 L 28.65419578552246 6.381745338439941 C 28.65610122680664 5.537102222442627 28.95524787902832 4.724870204925537 29.49887466430664 4.082005500793457 L 11.66863536834717 4.082005500793457 C 10.72446537017822 4.082005500793457 9.956335067749023 4.850135326385498 9.956335067749023 5.794305324554443 L 9.956335067749023 8.69035530090332 L 9.956335067749023 8.740355491638184 L 9.906335830688477 8.740355491638184 L 8.731475830078125 8.740355491638184 L 8.681475639343262 8.740355491638184 L 8.681475639343262 8.69035530090332 L 8.681475639343262 5.794305324554443 C 8.681475639343262 4.147175312042236 10.02150535583496 2.807145357131958 11.66863536834717 2.807145357131958 L 32.22879409790039 2.807145357131958 C 34.19983673095703 2.807145357131958 35.80338668823242 4.41070556640625 35.80338668823242 6.381745338439941 L 35.80338668823242 14.01836585998535 C 35.80338668823242 14.3698558807373 35.51743698120117 14.65580558776855 35.16595458984375 14.65580558776855 L 29.92905616760254 14.65580558776855 L 29.92905616760254 32.81622695922852 C 29.92905616760254 34.46335601806641 28.58902549743652 35.80338668823242 26.94189453125 35.80338668823242 Z M 6.381745338439941 29.92905616760254 C 5.113665580749512 29.92905616760254 4.082005500793457 30.96071624755859 4.082005500793457 32.22879409790039 C 4.082005500793457 33.49686431884766 5.113665580749512 34.52851486206055 6.381745338439941 34.52851486206055 L 24.0712776184082 34.52851486206055 C 23.60005950927734 33.85964584350586 23.35066223144531 33.046630859375 23.36730575561523 32.22777557373047 C 23.36764144897461 31.38494682312012 23.66486740112305 30.57267379760742 24.20646095275879 29.92905616760254 L 6.381745338439941 29.92905616760254 Z M 29.92905616760254 13.38093566894531 L 34.52851486206055 13.38093566894531 L 34.52851486206055 6.381745338439941 C 34.52851486206055 5.113665580749512 33.49686431884766 4.082005500793457 32.22879409790039 4.082005500793457 C 30.96071624755859 4.082005500793457 29.92905616760254 5.113665580749512 29.92905616760254 6.381745338439941 L 29.92905616760254 13.38093566894531 Z M 26.40445518493652 25.81702613830566 L 26.35445594787598 25.81702613830566 L 12.25607585906982 25.81702613830566 L 12.20607566833496 25.81702613830566 L 12.20607566833496 25.76702499389648 L 12.20607566833496 24.59216499328613 L 12.20607566833496 24.54216575622559 L 12.25607585906982 24.54216575622559 L 26.35445594787598 24.54216575622559 L 26.40445518493652 24.54216575622559 L 26.40445518493652 24.59216499328613 L 26.40445518493652 25.76702499389648 L 26.40445518493652 25.81702613830566 Z M 9.318905830383301 22.8798656463623 C 5.728305339813232 22.8798656463623 2.807145357131958 19.95870590209961 2.807145357131958 16.36810493469238 C 2.807145357131958 12.77750587463379 5.728305339813232 9.856335639953613 9.318905830383301 9.856335639953613 C 12.90950584411621 9.856335639953613 15.83066558837891 12.77750587463379 15.83066558837891 16.36810493469238 C 15.83066558837891 19.95870590209961 12.90950584411621 22.8798656463623 9.318905830383301 22.8798656463623 Z M 9.318905830383301 11.13120555877686 C 6.431265354156494 11.13120555877686 4.082005500793457 13.48046588897705 4.082005500793457 16.36810493469238 C 4.082005500793457 19.25573539733887 6.431265354156494 21.60499572753906 9.318905830383301 21.60499572753906 C 12.20654582977295 21.60499572753906 14.55580520629883 19.25573539733887 14.55580520629883 16.36810493469238 C 14.55580520629883 13.48046588897705 12.20654582977295 11.13120555877686 9.318905830383301 11.13120555877686 Z M 26.40445518493652 22.29244613647461 L 26.35443496704102 22.29242515563965 L 14.72389507293701 22.28773498535156 L 14.57579517364502 22.28767585754395 L 14.69362545013428 22.19795608520508 C 15.12009525299072 21.87321472167969 15.46408557891846 21.52548599243164 15.84383583068848 21.03523635864258 L 15.85885524749756 21.01585578918457 L 15.88337516784668 21.01585578918457 L 26.35446548461914 21.01756477355957 L 26.40445518493652 21.01757621765137 L 26.40445518493652 21.06756591796875 L 26.40445518493652 22.2424259185791 L 26.40445518493652 22.29244613647461 Z M 26.40445518493652 18.76783561706543 L 26.35445594787598 18.76783561706543 L 16.96277618408203 18.76783561706543 L 16.89146614074707 18.76783561706543 L 16.9157657623291 18.70079612731934 C 17.0449047088623 18.34451484680176 17.10343551635742 17.98269462585449 17.1654052734375 17.59964561462402 L 17.1758861541748 17.53495597839355 L 17.18269538879395 17.49296569824219 L 17.22523498535156 17.49296569824219 L 26.35445594787598 17.49296569824219 L 26.40445518493652 17.49296569824219 L 26.40445518493652 17.54296493530273 L 26.40445518493652 18.71783638000488 L 26.40445518493652 18.76783561706543 Z M 9.319045066833496 18.18039512634277 L 9.318785667419434 18.18039512634277 L 9.318515777587891 18.18039512634277 C 8.440415382385254 18.17358589172363 7.695155620574951 17.54050636291504 7.546455383300781 16.6750545501709 C 7.39974308013916 15.82117366790771 7.875909805297852 14.98667526245117 8.681475639343262 14.67684936523438 L 8.681475639343262 12.25607585906982 L 8.681475639343262 12.20607566833496 L 8.731475830078125 12.20607566833496 L 9.906335830688477 12.20607566833496 L 9.956335067749023 12.20607566833496 L 9.956335067749023 12.25607585906982 L 9.956335067749023 14.67662715911865 C 10.44455814361572 14.86108779907227 10.82591342926025 15.2424430847168 11.01037406921387 15.73066520690918 L 12.843505859375 15.73066520690918 L 12.89350509643555 15.73066520690918 L 12.89350509643555 15.78066539764404 L 12.89350509643555 16.95553588867188 L 12.89350509643555 17.00553512573242 L 12.843505859375 17.00553512573242 L 11.01045227050781 17.00553512573242 C 10.74662303924561 17.70764350891113 10.07140827178955 18.17828941345215 9.319045066833496 18.18039512634277 Z M 9.318905830383301 15.83066558837891 C 9.022565841674805 15.83066558837891 8.781475067138672 16.07175636291504 8.781475067138672 16.36810493469238 C 8.781475067138672 16.6644458770752 9.022565841674805 16.9055347442627 9.318905830383301 16.9055347442627 C 9.615245819091797 16.9055347442627 9.856335639953613 16.6644458770752 9.856335639953613 16.36810493469238 C 9.856335639953613 16.07175636291504 9.615245819091797 15.83066558837891 9.318905830383301 15.83066558837891 Z M 26.40445518493652 15.24323558807373 L 26.35445594787598 15.24323558807373 L 17.22523498535156 15.24323558807373 L 17.18269538879395 15.24323558807373 L 17.1758861541748 15.20124530792236 L 17.16538619995117 15.13644504547119 C 17.10342597961426 14.75342559814453 17.0449047088623 14.39165496826172 16.9157657623291 14.03540515899658 L 16.89146614074707 13.96836566925049 L 16.96277618408203 13.96836566925049 L 26.35445594787598 13.96836566925049 L 26.40445518493652 13.96836566925049 L 26.40445518493652 14.01836585998535 L 26.40445518493652 15.19323539733887 L 26.40445518493652 15.24323558807373 Z M 15.86071586608887 11.74090576171875 L 15.84573554992676 11.72378540039062 C 15.79201507568359 11.66238498687744 15.73871517181396 11.60016536712646 15.68486499786377 11.5372953414917 C 15.40887546539307 11.21508502960205 15.12349510192871 10.88189506530762 14.69369506835938 10.55581569671631 L 14.57566547393799 10.46626567840576 L 14.72381496429443 10.46598529815674 L 26.35435485839844 10.44377517700195 L 26.40445518493652 10.44367504119873 L 26.40445518493652 10.49377536773682 L 26.40445518493652 11.66863536834717 L 26.40445518493652 11.71852588653564 L 26.35456466674805 11.71863555908203 L 15.8834753036499 11.74085521697998 L 15.86071586608887 11.74090576171875 Z M 26.40445518493652 8.781475067138672 L 26.35445594787598 8.781475067138672 L 12.25607585906982 8.781475067138672 L 12.20607566833496 8.781475067138672 L 12.20607566833496 8.731475830078125 L 12.20607566833496 7.556605339050293 L 12.20607566833496 7.506605625152588 L 12.25607585906982 7.506605625152588 L 19.31843566894531 7.506605625152588 L 26.35445594787598 7.506605625152588 L 26.40445518493652 7.506605625152588 L 26.40445518493652 7.556605339050293 L 26.40445518493652 8.731475830078125 L 26.40445518493652 8.781475067138672 Z"/>
    <path class="cls-3" d="M 11.66863632202148 2.857147216796875 C 10.04648590087891 2.857147216796875 8.731475830078125 4.172157287597656 8.731475830078125 5.794303894042969 L 8.731475830078125 8.69035530090332 L 9.906335830688477 8.69035530090332 L 9.906335830688477 5.794303894042969 C 9.906335830688477 4.821014404296875 10.69534492492676 4.032005310058594 11.66863632202148 4.032005310058594 L 29.60884475708008 4.032005310058594 C 29.02827453613281 4.677154541015625 28.70615577697754 5.513824462890625 28.70419502258301 6.381736755371094 L 28.70419502258301 32.81622695922852 C 28.70419502258301 33.78950500488281 27.91518402099609 34.57851409912109 26.94189453125 34.57851409912109 L 26.40145492553711 34.57851409912109 C 25.06798553466797 34.43752670288086 24.59216499328613 33.2274169921875 24.59216499328613 32.22878646850586 C 24.59011459350586 31.60625457763672 24.83518600463867 31.00834655761719 25.27358627319336 30.56634521484375 C 25.76702499389648 30.108154296875 25.94325637817383 29.92605590820312 26.41320419311523 29.87905502319336 C 26.73763656616211 29.87905502319336 27.00063514709473 29.61605453491211 27.00063514709473 29.2916259765625 C 27.00063514709473 28.96719551086426 26.73763656616211 28.70419502258301 26.41320419311523 28.70419502258301 C 26.35445404052734 28.70419502258301 26.30158615112305 28.70419502258301 9.906335830688477 28.70419502258301 L 9.906335830688477 23.91073608398438 L 8.731475830078125 23.91073608398438 L 8.731475830078125 28.70419502258301 L 6.381736755371094 28.70419502258301 C 4.435153961181641 28.70419502258301 2.857147216796875 30.28220558166504 2.857147216796875 32.22878646850586 C 2.857147216796875 34.17537689208984 4.435153961181641 35.75338745117188 6.381736755371094 35.75338745117188 L 26.94189453125 35.75338745117188 C 28.56404495239258 35.75338745117188 29.87905502319336 34.43837738037109 29.87905502319336 32.81622695922852 L 29.87905502319336 14.60580635070801 L 35.16594696044922 14.60580635070801 C 35.49037551879883 14.60580635070801 35.75338745117188 14.34279632568359 35.75338745117188 14.01836585998535 L 35.75338745117188 6.381736755371094 C 35.75338745117188 4.435153961181641 34.17537689208984 2.857147216796875 32.22878646850586 2.857147216796875 L 11.66863632202148 2.857147216796875 M 34.57851409912109 13.43093490600586 L 29.87905502319336 13.43093490600586 L 29.87905502319336 6.381736755371094 C 29.87905502319336 5.084014892578125 30.93106460571289 4.032005310058594 32.22878646850586 4.032005310058594 C 33.52650451660156 4.032005310058594 34.57851409912109 5.084014892578125 34.57851409912109 6.381736755371094 L 34.57851409912109 13.43093490600586 M 24.16920471191406 34.57851409912109 L 6.381736755371094 34.57851409912109 C 5.084014892578125 34.57851409912109 4.032005310058594 33.52650451660156 4.032005310058594 32.22878646850586 C 4.032005310058594 30.93106460571289 5.084014892578125 29.87905502319336 6.381736755371094 29.87905502319336 L 24.31606674194336 29.87905502319336 C 23.73763656616211 30.52507400512695 23.41764450073242 31.36165618896484 23.41729545593262 32.22878646850586 C 23.40012550354004 33.07378387451172 23.66466522216797 33.90046691894531 24.16920471191406 34.57851409912109 M 12.25607490539551 7.556606292724609 L 12.25607490539551 8.731475830078125 L 26.35445404052734 8.731475830078125 L 26.35445404052734 7.556606292724609 L 12.25607490539551 7.556606292724609 M 9.318904876708984 9.906335830688477 C 5.750175476074219 9.906335830688477 2.857147216796875 12.79936599731445 2.857147216796875 16.36810493469238 C 2.857147216796875 19.93683624267578 5.750175476074219 22.82986450195312 9.318904876708984 22.82986450195312 C 12.88763618469238 22.82986450195312 15.78066635131836 19.93683624267578 15.78066635131836 16.36810493469238 C 15.78066635131836 12.79936599731445 12.88763618469238 9.906335830688477 9.318904876708984 9.906335830688477 M 9.318904876708984 21.65499496459961 C 6.399036407470703 21.65499496459961 4.032005310058594 19.2879753112793 4.032005310058594 16.36810493469238 C 4.032005310058594 13.4482250213623 6.399036407470703 11.08120536804199 9.318904876708984 11.08120536804199 C 12.2387752532959 11.08120536804199 14.60580635070801 13.4482250213623 14.60580635070801 16.36810493469238 C 14.60580635070801 19.2879753112793 12.2387752532959 21.65499496459961 9.318904876708984 21.65499496459961 M 26.35445404052734 10.49376487731934 L 14.72391510009766 10.5159854888916 C 15.24273490905762 10.90960502624512 15.55523490905762 11.31585502624512 15.88336563110352 11.69085502624512 L 26.35445404052734 11.66863632202148 L 26.35445404052734 10.49376487731934 M 8.731475830078125 12.25607490539551 L 8.731475830078125 14.71153450012207 C 7.929645538330078 15.00248527526855 7.451286315917969 15.8259162902832 7.595735549926758 16.66658592224121 C 7.740175247192383 17.50724601745605 8.465946197509766 18.1237850189209 9.318904876708984 18.13039588928223 C 10.06391525268555 18.12830543518066 10.72712516784668 17.65794563293457 10.97546577453613 16.95553588867188 L 12.843505859375 16.95553588867188 L 12.843505859375 15.78066635131836 L 10.97546577453613 15.78066635131836 C 10.79783630371094 15.2817554473877 10.4052562713623 14.8891658782959 9.906335830688477 14.71153450012207 L 9.906335830688477 12.25607490539551 L 8.731475830078125 12.25607490539551 M 9.318904876708984 16.95553588867188 C 8.994476318359375 16.95553588867188 8.731475830078125 16.69252586364746 8.731475830078125 16.36810493469238 C 8.731475830078125 16.04367637634277 8.994476318359375 15.78066635131836 9.318904876708984 15.78066635131836 C 9.643335342407227 15.78066635131836 9.906335830688477 16.04367637634277 9.906335830688477 16.36810493469238 C 9.906335830688477 16.69252586364746 9.643335342407227 16.95553588867188 9.318904876708984 16.95553588867188 M 16.96277618408203 14.01836585998535 C 17.10097503662109 14.39961624145508 17.16023635864258 14.79295539855957 17.22523498535156 15.19323539733887 L 26.35445404052734 15.19323539733887 L 26.35445404052734 14.01836585998535 L 16.96277618408203 14.01836585998535 M 17.22523498535156 17.54296493530273 C 17.16023635864258 17.94324493408203 17.10096549987793 18.33658599853516 16.96277618408203 18.71783638000488 L 26.35445404052734 18.71783638000488 L 26.35445404052734 17.54296493530273 L 17.22523498535156 17.54296493530273 M 15.88336563110352 21.06585502624512 C 15.54579544067383 21.50164604187012 15.20204544067383 21.87365531921387 14.72391510009766 22.23773574829102 L 26.35445404052734 22.2424259185791 L 26.35445404052734 21.06756591796875 L 15.88336563110352 21.06585502624512 M 12.25607490539551 24.59216499328613 L 12.25607490539551 25.76702499389648 L 26.35445404052734 25.76702499389648 L 26.35445404052734 24.59216499328613 L 12.25607490539551 24.59216499328613 M 11.66863632202148 2.757144927978516 L 32.22878646850586 2.757144927978516 C 34.22739410400391 2.757144927978516 35.85338592529297 4.383125305175781 35.85338592529297 6.381736755371094 L 35.85338592529297 14.01836585998535 C 35.85338592529297 14.39742469787598 35.54500579833984 14.7058048248291 35.16594696044922 14.7058048248291 L 29.97905540466309 14.7058048248291 L 29.97905540466309 32.81622695922852 C 29.97905540466309 34.49092483520508 28.61659622192383 35.85338592529297 26.94189453125 35.85338592529297 L 6.381736755371094 35.85338592529297 C 4.383125305175781 35.85338592529297 2.757144927978516 34.22739410400391 2.757144927978516 32.22878646850586 C 2.757144927978516 30.23017501831055 4.383125305175781 28.60419464111328 6.381736755371094 28.60419464111328 L 8.631475448608398 28.60419464111328 L 8.631475448608398 23.81073570251465 L 10.0063362121582 23.81073570251465 L 10.0063362121582 28.60419464111328 L 26.41320419311523 28.60419464111328 C 26.79225540161133 28.60419464111328 27.10063552856445 28.91257476806641 27.10063552856445 29.2916259765625 C 27.10063552856445 29.66894149780273 26.79508399963379 29.97623062133789 26.41841888427734 29.97903442382812 C 26.0063304901123 30.02127647399902 25.8420581817627 30.17412757873535 25.40569496154785 30.5800666809082 L 25.34162521362305 30.63962554931641 C 24.9218864440918 31.06293487548828 24.690185546875 31.62820434570312 24.69216537475586 32.22845458984375 C 24.69216537475586 33.18169403076172 25.14133834838867 34.34173202514648 26.40682983398438 34.478515625 L 26.94189453125 34.478515625 C 27.85849571228027 34.478515625 28.60419464111328 33.73281478881836 28.60419464111328 32.81622695922852 L 28.60419464111328 6.381736755371094 C 28.60605049133301 5.560863494873047 28.88476943969727 4.770183563232422 29.39315986633301 4.132003784179688 L 11.66863632202148 4.132003784179688 C 10.75203514099121 4.132003784179688 10.0063362121582 4.877704620361328 10.0063362121582 5.794303894042969 L 10.0063362121582 8.790355682373047 L 8.631475448608398 8.790355682373047 L 8.631475448608398 5.794303894042969 C 8.631475448608398 4.119606018066406 9.993934631347656 2.757144927978516 11.66863632202148 2.757144927978516 Z M 34.478515625 13.33093452453613 L 34.478515625 6.381736755371094 C 34.478515625 5.141223907470703 33.46929550170898 4.132003784179688 32.22878646850586 4.132003784179688 C 30.9882755279541 4.132003784179688 29.97905540466309 5.141223907470703 29.97905540466309 6.381736755371094 L 29.97905540466309 13.33093452453613 L 34.478515625 13.33093452453613 Z M 24.10105514526367 29.97905540466309 L 6.381736755371094 29.97905540466309 C 5.141223907470703 29.97905540466309 4.132003784179688 30.9882755279541 4.132003784179688 32.22878646850586 C 4.132003784179688 33.46929550170898 5.141223907470703 34.478515625 6.381736755371094 34.478515625 L 23.97633934020996 34.478515625 C 23.53407096862793 33.81642532348633 23.30110931396484 33.02431488037109 23.31731414794922 32.22675704956055 C 23.317626953125 31.40853691101074 23.59452056884766 30.61794662475586 24.10105514526367 29.97905540466309 Z M 12.15607452392578 7.456605911254883 L 26.4544563293457 7.456605911254883 L 26.4544563293457 8.831476211547852 L 12.15607452392578 8.831476211547852 L 12.15607452392578 7.456605911254883 Z M 9.318904876708984 9.80633544921875 C 12.93707466125488 9.80633544921875 15.88066482543945 12.74993515014648 15.88066482543945 16.36810493469238 C 15.88066482543945 19.98627471923828 12.93707466125488 22.92986679077148 9.318904876708984 22.92986679077148 C 5.700736999511719 22.92986679077148 2.757144927978516 19.98627471923828 2.757144927978516 16.36810493469238 C 2.757144927978516 12.74993515014648 5.700736999511719 9.80633544921875 9.318904876708984 9.80633544921875 Z M 9.318904876708984 21.55499458312988 C 12.17897605895996 21.55499458312988 14.50580596923828 19.22816467285156 14.50580596923828 16.36810493469238 C 14.50580596923828 13.50803565979004 12.17897605895996 11.18120574951172 9.318904876708984 11.18120574951172 C 6.458835601806641 11.18120574951172 4.132003784179688 13.50803565979004 4.132003784179688 16.36810493469238 C 4.132003784179688 19.22816467285156 6.458835601806641 21.55499458312988 9.318904876708984 21.55499458312988 Z M 26.4544563293457 10.39357566833496 L 26.4544563293457 11.76842498779297 L 15.83807563781738 11.79095458984375 L 15.80810546875 11.75670623779297 C 15.75427627563477 11.6951847076416 15.70085525512695 11.63282585144043 15.64689636230469 11.56982612609863 C 15.37261581420898 11.24960517883301 15.08900451660156 10.91849517822266 14.66347503662109 10.59565544128418 L 14.42740631103516 10.41655540466309 L 26.4544563293457 10.39357566833496 Z M 8.631475448608398 12.15607452392578 L 10.0063362121582 12.15607452392578 L 10.0063362121582 14.64240264892578 C 10.48181533813477 14.83208465576172 10.85490798950195 15.20517730712891 11.04459762573242 15.68066596984863 L 12.94350624084473 15.68066596984863 L 12.94350624084473 17.0555362701416 L 11.04472732543945 17.0555362701416 C 10.76523399353027 17.75904273986816 10.08066368103027 18.22826194763184 9.319185256958008 18.23039627075195 C 8.415805816650391 18.22339630126953 7.649986267089844 17.57284545898438 7.497175216674805 16.68351554870605 C 7.348365783691406 15.81748199462891 7.823171615600586 14.97082901000977 8.631475448608398 14.64284515380859 L 8.631475448608398 12.15607452392578 Z M 9.318904876708984 16.85553550720215 C 9.587675094604492 16.85553550720215 9.80633544921875 16.63687515258789 9.80633544921875 16.36810493469238 C 9.80633544921875 16.09932518005371 9.587675094604492 15.88066482543945 9.318904876708984 15.88066482543945 C 9.050134658813477 15.88066482543945 8.831476211547852 16.09932518005371 8.831476211547852 16.36810493469238 C 8.831476211547852 16.63687515258789 9.050134658813477 16.85553550720215 9.318904876708984 16.85553550720215 Z M 16.82015609741211 13.91836547851562 L 26.4544563293457 13.91836547851562 L 26.4544563293457 15.29323577880859 L 17.14016532897949 15.29323577880859 L 17.11602592468262 15.1444263458252 C 17.0544548034668 14.76379585266113 16.99629592895508 14.40427589416504 16.86876487731934 14.05244636535645 L 16.82015609741211 13.91836547851562 Z M 17.14016532897949 17.44296455383301 L 26.4544563293457 17.44296455383301 L 26.4544563293457 18.81783485412598 L 16.82016563415527 18.81783485412598 L 16.86876487731934 18.68375587463379 C 16.99630546569824 18.33188629150391 17.05446624755859 17.97232627868652 17.11604499816895 17.59165573120117 L 17.14016532897949 17.44296455383301 Z M 15.8343448638916 20.96584510803223 L 26.4544563293457 20.96758460998535 L 26.4544563293457 22.34246635437012 L 14.42768478393555 22.33761596679688 L 14.6633358001709 22.15817451477051 C 15.08614540100098 21.83621597290039 15.42737579345703 21.49122619628906 15.80430603027344 21.00461578369141 L 15.8343448638916 20.96584510803223 Z M 12.15607452392578 24.49216461181641 L 26.4544563293457 24.49216461181641 L 26.4544563293457 25.86702537536621 L 12.15607452392578 25.86702537536621 L 12.15607452392578 24.49216461181641 Z"/>
  </g>
</svg>
