<svg xmlns="http://www.w3.org/2000/svg" width="33.144" height="29.158" viewBox="0 0 33.144 29.158">
  <defs>
    <style>
      .cls-1 {
        fill: none;
        stroke: #fff;
        stroke-linecap: round;
        stroke-linejoin: round;
        stroke-miterlimit: 10;
        stroke-width: 1.5px;
      }
    </style>
  </defs>
  <g id="new-and-events-icon" transform="translate(0.75 0.75)">
    <path id="Path_13" data-name="Path 13" class="cls-1" d="M3.912,5.545h7.71v7.71H3.912Z" transform="translate(-0.453 -2.085)"/>
    <path id="Path_14" data-name="Path 14" class="cls-1" d="M12.775,6.891h5.283" transform="translate(1.654 -1.787)"/>
    <path id="Path_15" data-name="Path 15" class="cls-1" d="M12.775,10.51h5.283" transform="translate(1.654 -0.991)"/>
    <path id="Path_16" data-name="Path 16" class="cls-1" d="M3.912,14.76H19.8" transform="translate(-0.453 -0.052)"/>
    <path id="Path_17" data-name="Path 17" class="cls-1" d="M3.912,18.439H19.8" transform="translate(-0.453 0.76)"/>
    <path id="Path_18" data-name="Path 18" class="cls-1" d="M3.912,22.117H19.8" transform="translate(-0.453 1.571)"/>
    <path id="Path_19" data-name="Path 19" class="cls-1" d="M28.625,30.37H5.177a4.1,4.1,0,0,1-4.1-4.1V2.712H24.528V23.507" transform="translate(-1.08 -2.712)"/>
    <path id="Path_20" data-name="Path 20" class="cls-1" d="M28.438,13.784h-8.15V23.833a4.075,4.075,0,1,0,8.15,0Z" transform="translate(3.206 -0.274)"/>
  </g>
</svg>
