<svg xmlns="http://www.w3.org/2000/svg" width="33.525" height="31.139" viewBox="0 0 33.525 31.139">
  <defs>
    <style>
      .cls-1 {
        fill: #fff;
      }
    </style>
  </defs>
  <path id="suite-case-icon" class="cls-1" d="M31.533,8.307H26.2V5.972a2.311,2.311,0,0,0-2.286-2.335H13.247a2.311,2.311,0,0,0-2.286,2.335V8.307H5.628A3.852,3.852,0,0,0,1.818,12.2v9.342a.77.77,0,0,0,.762.778h.762v8.563a3.852,3.852,0,0,0,3.81,3.892H30.01a3.852,3.852,0,0,0,3.81-3.892V22.32h.762a.77.77,0,0,0,.762-.778V12.2A3.852,3.852,0,0,0,31.533,8.307ZM12.485,5.972a.77.77,0,0,1,.762-.778H23.914a.77.77,0,0,1,.762.778V8.307H12.485ZM33.819,20.763H23.914V22.32H32.3v8.563a2.311,2.311,0,0,1-2.286,2.335H7.152a2.311,2.311,0,0,1-2.286-2.335V22.32h8.381V20.763H3.342V12.2A2.311,2.311,0,0,1,5.628,9.864H31.533A2.311,2.311,0,0,1,33.819,12.2ZM20.1,16.87H17.057a2.311,2.311,0,0,0-2.286,2.335v4.671a2.311,2.311,0,0,0,2.286,2.335H20.1a2.311,2.311,0,0,0,2.286-2.335V19.206A2.311,2.311,0,0,0,20.1,16.87Zm.762,7.006a.77.77,0,0,1-.762.778H17.057a.77.77,0,0,1-.762-.778V19.206a.77.77,0,0,1,.762-.778H20.1a.77.77,0,0,1,.762.778Zm-3.048-3.114h1.524V22.32H17.819Z" transform="translate(-1.818 -3.636)"/>
</svg>
