<svg id="instagram-white-icon" xmlns="http://www.w3.org/2000/svg" width="15" height="15" viewBox="0 0 15 15">
  <defs>
    <style>
      .cls-1 {
        fill: #fff;
      }
    </style>
  </defs>
  <g id="Group_10" data-name="Group 10">
    <path id="Path_11" data-name="Path 11" class="cls-1" d="M7.5,0C5.465,0,5.209.009,4.409.045A5.526,5.526,0,0,0,2.588.394a3.672,3.672,0,0,0-1.328.865A3.682,3.682,0,0,0,.394,2.588,5.494,5.494,0,0,0,.045,4.406C.009,5.208,0,5.463,0,7.5s.009,2.291.045,3.091a5.525,5.525,0,0,0,.349,1.821,3.84,3.84,0,0,0,2.193,2.194,5.506,5.506,0,0,0,1.821.349c.8.036,1.056.045,3.093.045s2.291-.009,3.092-.045a5.537,5.537,0,0,0,1.822-.349,3.84,3.84,0,0,0,2.193-2.194,5.55,5.55,0,0,0,.349-1.821c.036-.8.045-1.055.045-3.092s-.009-2.292-.045-3.093a5.543,5.543,0,0,0-.349-1.82,3.681,3.681,0,0,0-.865-1.328A3.667,3.667,0,0,0,12.413.394,5.517,5.517,0,0,0,10.591.045C9.79.009,9.536,0,7.5,0h0ZM6.828,1.352H7.5c2,0,2.24.007,3.03.043a4.156,4.156,0,0,1,1.393.258,2.327,2.327,0,0,1,.863.562,2.317,2.317,0,0,1,.561.863,4.119,4.119,0,0,1,.258,1.392c.037.79.044,1.028.044,3.029s-.007,2.24-.044,3.03a4.149,4.149,0,0,1-.258,1.392,2.486,2.486,0,0,1-1.424,1.422,4.126,4.126,0,0,1-1.392.259c-.79.036-1.027.044-3.03.044S5.26,13.637,4.47,13.6a4.143,4.143,0,0,1-1.392-.259,2.323,2.323,0,0,1-.862-.561,2.325,2.325,0,0,1-.562-.862A4.144,4.144,0,0,1,1.4,10.527C1.359,9.737,1.352,9.5,1.352,7.5s.008-2.239.043-3.029a4.15,4.15,0,0,1,.259-1.393,2.327,2.327,0,0,1,.562-.863,2.317,2.317,0,0,1,.862-.561A4.143,4.143,0,0,1,4.47,1.392c.692-.032.96-.041,2.358-.042v0ZM11.5,2.6a.9.9,0,1,0,.9.9.9.9,0,0,0-.9-.9Zm-4,1.052A3.852,3.852,0,1,0,11.353,7.5,3.851,3.851,0,0,0,7.5,3.649ZM7.5,5A2.5,2.5,0,1,1,5,7.5,2.5,2.5,0,0,1,7.5,5Z" transform="translate(0 0)"/>
  </g>
</svg>
