<svg id="linkedin-white-icon" xmlns="http://www.w3.org/2000/svg" width="15" height="14.336" viewBox="0 0 15 14.336">
  <defs>
    <style>
      .cls-1 {
        fill: #fff;
      }
    </style>
  </defs>
  <path id="Path_10" data-name="Path 10" class="cls-1" d="M3.408,4.867v9.678H.186V4.867Zm.205-2.988A1.546,1.546,0,0,1,3.12,3.07,1.84,1.84,0,0,1,1.8,3.548h-.02A1.762,1.762,0,0,1,.488,3.07,1.6,1.6,0,0,1,0,1.878,1.573,1.573,0,0,1,.5.682,1.838,1.838,0,0,1,1.816.208a1.786,1.786,0,0,1,1.3.474A1.629,1.629,0,0,1,3.613,1.878ZM15,9v5.547H11.787V9.368a2.825,2.825,0,0,0-.4-1.606,1.389,1.389,0,0,0-1.235-.581,1.582,1.582,0,0,0-1.03.337,2.077,2.077,0,0,0-.62.835,2.361,2.361,0,0,0-.107.791v5.4H5.186q.02-3.9.02-6.318T5.2,5.335l-.01-.469H8.4V6.273h-.02a4.25,4.25,0,0,1,.4-.547,4.164,4.164,0,0,1,.552-.508,2.537,2.537,0,0,1,.85-.425A3.871,3.871,0,0,1,11.3,4.642,3.469,3.469,0,0,1,13.984,5.75,4.65,4.65,0,0,1,15,9Z" transform="translate(0 -0.208)"/>
</svg>
