<svg id="twitter-white-icon" xmlns="http://www.w3.org/2000/svg" width="15" height="12.188" viewBox="0 0 15 12.188">
  <defs>
    <style>
      .cls-1 {
        fill: #fff;
      }
    </style>
  </defs>
  <path id="Path_9" data-name="Path 9" class="cls-1" d="M4.712,14.187a8.7,8.7,0,0,0,8.757-8.751c0-.131,0-.264-.006-.4A6.267,6.267,0,0,0,15,3.446a6.242,6.242,0,0,1-1.771.486,3.1,3.1,0,0,0,1.357-1.7,6.125,6.125,0,0,1-1.957.743A3.081,3.081,0,0,0,7.383,5.778,8.742,8.742,0,0,1,1.039,2.563a3.083,3.083,0,0,0,.954,4.108A3.115,3.115,0,0,1,.6,6.289v.042A3.082,3.082,0,0,0,3.068,9.348a3,3,0,0,1-.811.108A3.028,3.028,0,0,1,1.681,9.4a3.078,3.078,0,0,0,2.875,2.135A6.176,6.176,0,0,1,.731,12.856,5.925,5.925,0,0,1,0,12.814a8.76,8.76,0,0,0,4.712,1.373Z" transform="translate(0 -1.999)"/>
</svg>
